<svg width="125" height="158" viewBox="0 0 125 158" fill="none" xmlns="http://www.w3.org/2000/svg">
<path d="M42.6283 41.553L57.1943 64.6453L58.2641 66.3096V68.494L58.4287 90.5462V92.8346L57.2766 94.6029L40.6532 120.504C40.324 121.024 39.8303 122.792 39.9126 123.52V123.936L40.2417 130.178L30.3665 131.01L30.0373 124.769V124.353C29.8727 120.504 31.0248 115.615 32.9999 112.598L49.6232 86.6975L48.5534 90.6502L48.3888 68.598L49.4587 72.4468L32.753 46.0258L29.955 41.657H42.6283V41.553ZM86.1618 116.447L71.5957 93.3547L70.5259 91.6904V89.506L70.3613 67.4538V65.1654L71.5134 63.3971L88.1368 37.4962C88.466 36.9761 88.9597 35.2078 88.8775 34.4796V34.0636L88.5483 27.8224L98.4236 26.9902L98.7527 33.2314V33.6475C98.9173 37.4962 97.7652 42.3851 95.7901 45.4017L79.1668 71.3026L80.2366 67.3498L80.4012 89.402L79.3314 85.5532L96.037 111.974L98.835 116.343H86.1618V116.447Z" fill="#2C6140"/>
<path d="M65.0122 102.924L74.0645 117.487H55.9599L65.0122 102.924Z" fill="#26A269"/>
<path d="M65.0122 55.0755L74.0645 40.5128H55.9599L65.0122 55.0755Z" fill="#33D17A"/>
<path d="M28.0622 15.5481H111.179C111.179 15.5481 110.603 28.0304 98.835 28.0304H18.187C18.187 28.0304 19.0099 15.5481 28.0622 15.5481ZM28.0622 128.929H111.179C111.179 128.929 110.603 141.412 98.835 141.412H18.187C18.187 141.412 19.0099 128.929 28.0622 128.929Z" fill="#2C6140"/>
</svg>
